HIERARCHY
ROOT Root
{
	OFFSET 0.00000 0.00000 0.00000
	CHANNELS 6 Xposition Yposition Zposition Zrotation Xrotation Yrotation
	JOINT Hips
	{
		OFFSET 0 0 0	
		CHANNELS 3 Zrotation Xrotation Yrotation
		JOINT Spine
		{
			OFFSET 0 4 0	
			CHANNELS 3 Zrotation Xrotation Yrotation
			JOINT Spine1
			{
				OFFSET 0 19.4 0	
				CHANNELS 3 Zrotation Xrotation Yrotation
				JOINT Spine2
				{
					OFFSET 0 16.6 0	
					CHANNELS 3 Zrotation Xrotation Yrotation
					JOINT LeftCollar
					{
						OFFSET 0 10 0	
						CHANNELS 3 Zrotation Xrotation Yrotation
						JOINT LeftArm
						{
							OFFSET 15.6 -2 3	
							CHANNELS 3 Zrotation Xrotation Yrotation
							JOINT LeftForeArm
							{
								OFFSET 3.5 -27 -1	
								CHANNELS 3 Zrotation Xrotation Yrotation
								JOINT LeftHand
								{
									OFFSET 1 -27 1	
									CHANNELS 3 Zrotation Xrotation Yrotation
									End Site
									{
										OFFSET 0 -15 0
									}
								}
							}
						}
					}
					JOINT RightCollar
					{
						OFFSET 0 10 0	
						CHANNELS 3 Zrotation Xrotation Yrotation
						JOINT RightArm
						{
							OFFSET -15.6 -2 3	
							CHANNELS 3 Zrotation Xrotation Yrotation
							JOINT RightForeArm
							{
								OFFSET -3.5 -27 -1	
								CHANNELS 3 Zrotation Xrotation Yrotation
								JOINT RightHand
								{
									OFFSET -1 -27 1	
									CHANNELS 3 Zrotation Xrotation Yrotation
									End Site
									{
										OFFSET 0 -15 0
									}
								}
							}
						}
					}
					JOINT Neck
					{
						OFFSET 0 10 0	
						CHANNELS 3 Zrotation Xrotation Yrotation
						JOINT Head
						{
							OFFSET 0 12.7 3	
							CHANNELS 3 Zrotation Xrotation Yrotation
							End Site
							{
								OFFSET 0 12.7 3
							}
						}
					}
				}
			}
		}
	}
	JOINT LeftHip
	{
		OFFSET 0 0 0	
		CHANNELS 3 Zrotation Xrotation Yrotation
		JOINT LeftUpLeg
		{
			OFFSET 8.8 -6 0	
			CHANNELS 3 Zrotation Xrotation Yrotation
			JOINT LeftLeg
			{
				OFFSET 0 -39 2	
				CHANNELS 3 Zrotation Xrotation Yrotation
				JOINT LeftFoot
				{
					OFFSET 0 -43 -2	
					CHANNELS 3 Zrotation Xrotation Yrotation
					JOINT LeftFootFront
					{
						OFFSET 0 -7 8.5	
						CHANNELS 3 Zrotation Xrotation Yrotation
						End Site
						{
							OFFSET 0 -0.5 9
						}
					}
				}
				JOINT LeftHeel
				{
					OFFSET 0 -43 -2	
					CHANNELS 3 Zrotation Xrotation Yrotation
					End Site
					{
						OFFSET 0 -7.5 -5
					}
				}
			}
		}
	}
	JOINT RightHip
	{
		OFFSET 0 0 0	
		CHANNELS 3 Zrotation Xrotation Yrotation
		JOINT RightUpLeg
		{
			OFFSET -8.8 -6 0	
			CHANNELS 3 Zrotation Xrotation Yrotation
			JOINT RightLeg
			{
				OFFSET 0 -39 2	
				CHANNELS 3 Zrotation Xrotation Yrotation
				JOINT RightFoot
				{
					OFFSET 0 -43 -2	
					CHANNELS 3 Zrotation Xrotation Yrotation
					JOINT RightFootFront
					{
						OFFSET 0 -7 8.5	
						CHANNELS 3 Zrotation Xrotation Yrotation
						End Site
						{
							OFFSET 0 -0.5 9
						}
					}
				}
				JOINT RightHeel
				{
					OFFSET 0 -43 -2	
					CHANNELS 3 Zrotation Xrotation Yrotation
					End Site
					{
						OFFSET 0 -7.5 -5
					}
				}
			}
		}
	}
}
MOTION
Frames: 36
Frame Time: 0.05
0 95.5 0 -0 0 -0 -0 0 -0 -0 0 -0 -17.187 31.104 29.403 -0 0 -0 -0 0 -0 -7.4142 -48.643 -13.963 -56.673 -69.299 -12.566 -0 0 -0 -0 0 -0 6.8449 -38.939 38.651 76.466 -57.017 -23.903 -0 0 -0 -4.5895 -26.08 -4.8798 -4.5895 -26.08 -4.8798 -0 0 -0 -0 0 -0 -0 0 -0 -0 0 -0 -0 0 -0 -0 0 -0 -0 0 -0 -0 0 -0 -0 0 -0 -0 0 -0 -0 0 -0 -0 0 -0 
0 95.5 0 -0 0 -0 -0 0 -0 -0 0 -0 -17.182 31.223 29.347 -0 0 -0 -0 0 -0 -7.4377 -48.742 -13.873 -56.74 -69.261 -12.503 -0 0 -0 -0 0 -0 6.7684 -39.02 38.709 76.431 -57.004 -23.934 -0 0 -0 -4.5933 -26.121 -4.8705 -4.5933 -26.121 -4.8705 -0 0 -0 -0 0 -0 -0 0 -0 -0 0 -0 -0 0 -0 -0 0 -0 -0 0 -0 -0 0 -0 -0 0 -0 -0 0 -0 -0 0 -0 -0 0 -0 
0 95.5 0 -0 0 -0 -0 0 -0 -0 0 -0 -17.186 31.251 29.336 -0 0 -0 -0 0 -0 -7.4642 -48.718 -13.925 -56.742 -69.29 -12.469 -0 0 -0 -0 0 -0 6.7287 -39.052 38.69 76.396 -56.992 -23.983 -0 0 -0 -4.5813 -26.02 -4.9066 -4.5813 -26.02 -4.9066 -0 0 -0 -0 0 -0 -0 0 -0 -0 0 -0 -0 0 -0 -0 0 -0 -0 0 -0 -0 0 -0 -0 0 -0 -0 0 -0 -0 0 -0 -0 0 -0 
0 95.5 0 -0 0 -0 -0 0 -0 -0 0 -0 -17.185 31.246 29.35 -0 0 -0 -0 0 -0 -7.461 -48.725 -14.005 -56.669 -69.36 -12.253 -0 0 -0 -0 0 -0 6.731 -39.1 38.666 76.267 -56.97 -24.104 -0 0 -0 -4.5501 -25.857 -4.9401 -4.5501 -25.857 -4.9401 -0 0 -0 -0 0 -0 -0 0 -0 -0 0 -0 -0 0 -0 -0 0 -0 -0 0 -0 -0 0 -0 -0 0 -0 -0 0 -0 -0 0 -0 -0 0 -0 
0 95.5 0 -0 0 -0 -0 0 -0 -0 0 -0 -17.2 31.204 29.352 -0 0 -0 -0 0 -0 -7.4129 -48.765 -14.003 -56.586 -69.369 -12.126 -0 0 -0 -0 0 -0 6.8133 -39.115 38.702 76.084 -56.957 -24.201 -0 0 -0 -4.4798 -25.713 -4.887 -4.4798 -25.713 -4.887 -0 0 -0 -0 0 -0 -0 0 -0 -0 0 -0 -0 0 -0 -0 0 -0 -0 0 -0 -0 0 -0 -0 0 -0 -0 0 -0 -0 0 -0 -0 0 -0 
0 95.5 0 -0 0 -0 -0 0 -0 -0 0 -0 -17.188 31.121 29.407 -0 0 -0 -0 0 -0 -7.4638 -48.736 -14.077 -56.482 -69.343 -12.006 -0 0 -0 -0 0 -0 6.8137 -39.055 38.638 76.049 -56.95 -24.177 -0 0 -0 -4.4331 -25.599 -4.8211 -4.4331 -25.599 -4.8211 -0 0 -0 -0 0 -0 -0 0 -0 -0 0 -0 -0 0 -0 -0 0 -0 -0 0 -0 -0 0 -0 -0 0 -0 -0 0 -0 -0 0 -0 -0 0 -0 
0 95.5 0 -0 0 -0 -0 0 -0 -0 0 -0 -17.192 31.081 29.455 -0 0 -0 -0 0 -0 -7.5237 -48.692 -14.122 -56.514 -69.32 -12.001 -0 0 -0 -0 0 -0 6.7693 -39.003 38.566 76.102 -56.932 -24.109 -0 0 -0 -4.41 -25.56 -4.7717 -4.41 -25.56 -4.7717 -0 0 -0 -0 0 -0 -0 0 -0 -0 0 -0 -0 0 -0 -0 0 -0 -0 0 -0 -0 0 -0 -0 0 -0 -0 0 -0 -0 0 -0 -0 0 -0 
0 95.5 0 -0 0 -0 -0 0 -0 -0 0 -0 -17.163 31.142 29.439 -0 0 -0 -0 0 -0 -7.6288 -48.701 -14.092 -56.654 -69.295 -12.129 -0 0 -0 -0 0 -0 6.6544 -38.969 38.521 76.125 -56.895 -24.002 -0 0 -0 -4.448 -25.533 -4.7192 -4.448 -25.533 -4.7192 -0 0 -0 -0 0 -0 -0 0 -0 -0 0 -0 -0 0 -0 -0 0 -0 -0 0 -0 -0 0 -0 -0 0 -0 -0 0 -0 -0 0 -0 -0 0 -0 
0 95.5 0 -0 0 -0 -0 0 -0 -0 0 -0 -17.175 31.172 29.41 -0 0 -0 -0 0 -0 -7.6437 -48.668 -14.082 -56.669 -69.305 -12.152 -0 0 -0 -0 0 -0 6.6464 -38.971 38.509 76.102 -56.836 -23.975 -0 0 -0 -4.4518 -25.434 -4.6809 -4.4518 -25.434 -4.6809 -0 0 -0 -0 0 -0 -0 0 -0 -0 0 -0 -0 0 -0 -0 0 -0 -0 0 -0 -0 0 -0 -0 0 -0 -0 0 -0 -0 0 -0 -0 0 -0 
0 95.5 0 -0 0 -0 -0 0 -0 -0 0 -0 -17.153 31.223 29.387 -0 0 -0 -0 0 -0 -7.704 -48.69 -14.088 -56.662 -69.284 -12.163 -0 0 -0 -0 0 -0 6.5857 -39.016 38.453 76.088 -56.778 -23.974 -0 0 -0 -4.4226 -25.32 -4.6117 -4.4226 -25.32 -4.6117 -0 0 -0 -0 0 -0 -0 0 -0 -0 0 -0 -0 0 -0 -0 0 -0 -0 0 -0 -0 0 -0 -0 0 -0 -0 0 -0 -0 0 -0 -0 0 -0 
0 95.5 0 -0 0 -0 -0 0 -0 -0 0 -0 -17.249 31.255 29.442 -0 0 -0 -0 0 -0 -7.7127 -48.751 -14.186 -56.522 -69.32 -12.043 -0 0 -0 -0 0 -0 6.5913 -39.089 38.382 76.198 -56.727 -23.852 -0 0 -0 -4.375 -25.257 -4.5092 -4.375 -25.257 -4.5092 -0 0 -0 -0 0 -0 -0 0 -0 -0 0 -0 -0 0 -0 -0 0 -0 -0 0 -0 -0 0 -0 -0 0 -0 -0 0 -0 -0 0 -0 -0 0 -0 
0 95.5 0 -0 0 -0 -0 0 -0 -0 0 -0 -17.26 31.239 29.422 -0 0 -0 -0 0 -0 -7.732 -48.76 -14.18 -56.427 -69.309 -11.995 -0 0 -0 -0 0 -0 6.5366 -39.072 38.357 76.196 -56.703 -23.785 -0 0 -0 -4.3646 -25.203 -4.4502 -4.3646 -25.203 -4.4502 -0 0 -0 -0 0 -0 -0 0 -0 -0 0 -0 -0 0 -0 -0 0 -0 -0 0 -0 -0 0 -0 -0 0 -0 -0 0 -0 -0 0 -0 -0 0 -0 
0 95.5 0 -0 0 -0 -0 0 -0 -0 0 -0 -17.178 31.213 29.357 -0 0 -0 -0 0 -0 -7.7863 -48.758 -14.16 -56.325 -69.299 -11.893 -0 0 -0 -0 0 -0 6.4733 -39.02 38.337 76.147 -56.652 -23.788 -0 0 -0 -4.3605 -25.154 -4.4142 -4.3605 -25.154 -4.4142 -0 0 -0 -0 0 -0 -0 0 -0 -0 0 -0 -0 0 -0 -0 0 -0 -0 0 -0 -0 0 -0 -0 0 -0 -0 0 -0 -0 0 -0 -0 0 -0 
0 95.5 0 -0 0 -0 -0 0 -0 -0 0 -0 -17.131 31.19 29.298 -0 0 -0 -0 0 -0 -7.8038 -48.736 -14.125 -56.261 -69.279 -11.849 -0 0 -0 -0 0 -0 6.4843 -39.01 38.359 76.044 -56.621 -23.871 -0 0 -0 -4.3604 -25.13 -4.3635 -4.3604 -25.13 -4.3635 -0 0 -0 -0 0 -0 -0 0 -0 -0 0 -0 -0 0 -0 -0 0 -0 -0 0 -0 -0 0 -0 -0 0 -0 -0 0 -0 -0 0 -0 -0 0 -0 
0 95.5 0 -0 0 -0 -0 0 -0 -0 0 -0 -17.078 31.116 29.261 -0 0 -0 -0 0 -0 -7.8273 -48.67 -14.094 -56.144 -69.221 -11.76 -0 0 -0 -0 0 -0 6.4858 -38.95 38.348 75.948 -56.6 -23.925 -0 0 -0 -4.3422 -25.097 -4.3353 -4.3422 -25.097 -4.3353 -0 0 -0 -0 0 -0 -0 0 -0 -0 0 -0 -0 0 -0 -0 0 -0 -0 0 -0 -0 0 -0 -0 0 -0 -0 0 -0 -0 0 -0 -0 0 -0 
0 95.5 0 -0 0 -0 -0 0 -0 -0 0 -0 -17.007 31.042 29.262 -0 0 -0 -0 0 -0 -7.875 -48.594 -14.093 -56.145 -69.198 -11.752 -0 0 -0 -0 0 -0 6.4422 -38.878 38.281 75.864 -56.582 -23.947 -0 0 -0 -4.3291 -25.049 -4.3059 -4.3291 -25.049 -4.3059 -0 0 -0 -0 0 -0 -0 0 -0 -0 0 -0 -0 0 -0 -0 0 -0 -0 0 -0 -0 0 -0 -0 0 -0 -0 0 -0 -0 0 -0 -0 0 -0 
0 95.5 0 -0 0 -0 -0 0 -0 -0 0 -0 -16.962 30.995 29.216 -0 0 -0 -0 0 -0 -7.861 -48.557 -14.008 -56.177 -69.166 -11.8 -0 0 -0 -0 0 -0 6.4589 -38.827 38.294 75.949 -56.535 -23.854 -0 0 -0 -4.2957 -24.959 -4.2123 -4.2957 -24.959 -4.2123 -0 0 -0 -0 0 -0 -0 0 -0 -0 0 -0 -0 0 -0 -0 0 -0 -0 0 -0 -0 0 -0 -0 0 -0 -0 0 -0 -0 0 -0 -0 0 -0 
0 95.5 0 -0 0 -0 -0 0 -0 -0 0 -0 -16.876 30.936 29.126 -0 0 -0 -0 0 -0 -7.8585 -48.508 -13.874 -56.15 -69.111 -11.798 -0 0 -0 -0 0 -0 6.462 -38.737 38.312 75.85 -56.447 -23.868 -0 0 -0 -4.2705 -24.812 -4.1463 -4.2704 -24.812 -4.1463 -0 0 -0 -0 0 -0 -0 0 -0 -0 0 -0 -0 0 -0 -0 0 -0 -0 0 -0 -0 0 -0 -0 0 -0 -0 0 -0 -0 0 -0 -0 0 -0 
0 95.5 0 -0 0 -0 -0 0 -0 -0 0 -0 -16.864 30.919 29.146 -0 0 -0 -0 0 -0 -7.9584 -48.465 -13.92 -56.232 -69.1 -11.962 -0 0 -0 -0 0 -0 6.4538 -38.726 38.221 75.803 -56.333 -23.869 -0 0 -0 -4.2227 -24.704 -4.1991 -4.2227 -24.704 -4.1991 -0 0 -0 -0 0 -0 -0 0 -0 -0 0 -0 -0 0 -0 -0 0 -0 -0 0 -0 -0 0 -0 -0 0 -0 -0 0 -0 -0 0 -0 -0 0 -0 
0 95.5 0 -0 0 -0 -0 0 -0 -0 0 -0 -16.793 30.827 29.081 -0 0 -0 -0 0 -0 -7.9483 -48.31 -13.834 -56.361 -69.108 -12.227 -0 0 -0 -0 0 -0 6.4599 -38.609 38.178 75.746 -56.208 -23.8 -0 0 -0 -4.1594 -24.608 -4.2209 -4.1594 -24.608 -4.2209 -0 0 -0 -0 0 -0 -0 0 -0 -0 0 -0 -0 0 -0 -0 0 -0 -0 0 -0 -0 0 -0 -0 0 -0 -0 0 -0 -0 0 -0 -0 0 -0 
0 95.5 0 -0 0 -0 -0 0 -0 -0 0 -0 -16.738 30.761 29.038 -0 0 -0 -0 0 -0 -7.9318 -48.209 -13.715 -56.57 -69.057 -12.449 -0 0 -0 -0 0 -0 6.4375 -38.513 38.136 75.711 -56.109 -23.722 -0 0 -0 -4.1618 -24.555 -4.2388 -4.1618 -24.555 -4.2388 -0 0 -0 -0 0 -0 -0 0 -0 -0 0 -0 -0 0 -0 -0 0 -0 -0 0 -0 -0 0 -0 -0 0 -0 -0 0 -0 -0 0 -0 -0 0 -0 
0 95.5 0 -0 0 -0 -0 0 -0 -0 0 -0 -16.729 30.749 29.008 -0 0 -0 -0 0 -0 -7.8848 -48.146 -13.627 -56.766 -69.05 -12.618 -0 0 -0 -0 0 -0 6.4323 -38.469 38.121 75.841 -56.029 -23.579 -0 0 -0 -4.156 -24.534 -4.2608 -4.156 -24.534 -4.2608 -0 0 -0 -0 0 -0 -0 0 -0 -0 0 -0 -0 0 -0 -0 0 -0 -0 0 -0 -0 0 -0 -0 0 -0 -0 0 -0 -0 0 -0 -0 0 -0 
0 95.5 0 -0 0 -0 -0 0 -0 -0 0 -0 -16.72 30.792 28.964 -0 0 -0 -0 0 -0 -7.8077 -48.123 -13.489 -57.028 -69.04 -12.842 -0 0 -0 -0 0 -0 6.4107 -38.459 38.137 76.011 -55.994 -23.431 -0 0 -0 -4.1621 -24.57 -4.2602 -4.1621 -24.57 -4.2602 -0 0 -0 -0 0 -0 -0 0 -0 -0 0 -0 -0 0 -0 -0 0 -0 -0 0 -0 -0 0 -0 -0 0 -0 -0 0 -0 -0 0 -0 -0 0 -0 
0 95.5 0 -0 0 -0 -0 0 -0 -0 0 -0 -16.686 30.791 28.937 -0 0 -0 -0 0 -0 -7.7726 -48.066 -13.409 -57.276 -69.039 -13.041 -0 0 -0 -0 0 -0 6.3743 -38.41 38.118 76.159 -55.957 -23.268 -0 0 -0 -4.1755 -24.598 -4.2455 -4.1755 -24.598 -4.2455 -0 0 -0 -0 0 -0 -0 0 -0 -0 0 -0 -0 0 -0 -0 0 -0 -0 0 -0 -0 0 -0 -0 0 -0 -0 0 -0 -0 0 -0 -0 0 -0 
0 95.5 0 -0 0 -0 -0 0 -0 -0 0 -0 -16.62 30.74 28.879 -0 0 -0 -0 0 -0 -7.7313 -47.967 -13.317 -57.411 -69.029 -13.135 -0 0 -0 -0 0 -0 6.3548 -38.32 38.105 76.085 -55.896 -23.245 -0 0 -0 -4.1789 -24.584 -4.2107 -4.1789 -24.584 -4.2107 -0 0 -0 -0 0 -0 -0 0 -0 -0 0 -0 -0 0 -0 -0 0 -0 -0 0 -0 -0 0 -0 -0 0 -0 -0 0 -0 -0 0 -0 -0 0 -0 
0 95.5 0 -0 0 -0 -0 0 -0 -0 0 -0 -16.601 30.703 28.867 -0 0 -0 -0 0 -0 -7.7096 -47.911 -13.283 -57.492 -69.039 -13.177 -0 0 -0 -0 0 -0 6.3609 -38.288 38.077 75.959 -55.845 -23.317 -0 0 -0 -4.1717 -24.606 -4.205 -4.1717 -24.606 -4.205 -0 0 -0 -0 0 -0 -0 0 -0 -0 0 -0 -0 0 -0 -0 0 -0 -0 0 -0 -0 0 -0 -0 0 -0 -0 0 -0 -0 0 -0 -0 0 -0 
0 95.5 0 -0 0 -0 -0 0 -0 -0 0 -0 -16.622 30.709 28.912 -0 0 -0 -0 0 -0 -7.7514 -47.901 -13.338 -57.573 -69.031 -13.25 -0 0 -0 -0 0 -0 6.3582 -38.313 38.007 76.03 -55.788 -23.213 -0 0 -0 -4.1739 -24.682 -4.2496 -4.1739 -24.682 -4.2496 -0 0 -0 -0 0 -0 -0 0 -0 -0 0 -0 -0 0 -0 -0 0 -0 -0 0 -0 -0 0 -0 -0 0 -0 -0 0 -0 -0 0 -0 -0 0 -0 
0 95.5 0 -0 0 -0 -0 0 -0 -0 0 -0 -16.672 30.722 29.009 -0 0 -0 -0 0 -0 -7.8023 -47.9 -13.481 -57.566 -69.067 -13.251 -0 0 -0 -0 0 -0 6.3341 -38.365 37.902 76.122 -55.743 -23.064 -0 0 -0 -4.1906 -24.756 -4.3325 -4.1906 -24.756 -4.3325 -0 0 -0 -0 0 -0 -0 0 -0 -0 0 -0 -0 0 -0 -0 0 -0 -0 0 -0 -0 0 -0 -0 0 -0 -0 0 -0 -0 0 -0 -0 0 -0 
0 95.5 0 -0 0 -0 -0 0 -0 -0 0 -0 -16.691 30.683 29.016 -0 0 -0 -0 0 -0 -7.7337 -47.871 -13.491 -57.533 -69.108 -13.219 -0 0 -0 -0 0 -0 6.3492 -38.354 37.899 76.206 -55.732 -22.898 -0 0 -0 -4.1824 -24.777 -4.3449 -4.1824 -24.777 -4.3449 -0 0 -0 -0 0 -0 -0 0 -0 -0 0 -0 -0 0 -0 -0 0 -0 -0 0 -0 -0 0 -0 -0 0 -0 -0 0 -0 -0 0 -0 -0 0 -0 
0 95.5 0 -0 0 -0 -0 0 -0 -0 0 -0 -16.699 30.752 28.997 -0 0 -0 -0 0 -0 -7.7364 -47.976 -13.477 -57.44 -69.123 -13.114 -0 0 -0 -0 0 -0 6.3528 -38.443 37.941 76.221 -55.688 -22.778 -0 0 -0 -4.1769 -24.831 -4.3166 -4.1769 -24.831 -4.3166 -0 0 -0 -0 0 -0 -0 0 -0 -0 0 -0 -0 0 -0 -0 0 -0 -0 0 -0 -0 0 -0 -0 0 -0 -0 0 -0 -0 0 -0 -0 0 -0 
0 95.5 0 -0 0 -0 -0 0 -0 -0 0 -0 -16.736 30.732 29.064 -0 0 -0 -0 0 -0 -7.7511 -47.975 -13.608 -57.327 -69.18 -12.993 -0 0 -0 -0 0 -0 6.3583 -38.49 37.892 76.242 -55.653 -22.684 -0 0 -0 -4.147 -24.863 -4.3532 -4.147 -24.863 -4.3532 -0 0 -0 -0 0 -0 -0 0 -0 -0 0 -0 -0 0 -0 -0 0 -0 -0 0 -0 -0 0 -0 -0 0 -0 -0 0 -0 -0 0 -0 -0 0 -0 
0 95.5 0 -0 0 -0 -0 0 -0 -0 0 -0 -16.747 30.748 29.034 -0 0 -0 -0 0 -0 -7.7357 -48.054 -13.558 -57.199 -69.158 -12.886 -0 0 -0 -0 0 -0 6.3929 -38.538 37.954 76.124 -55.624 -22.671 -0 0 -0 -4.1043 -24.908 -4.3583 -4.1043 -24.908 -4.3583 -0 0 -0 -0 0 -0 -0 0 -0 -0 0 -0 -0 0 -0 -0 0 -0 -0 0 -0 -0 0 -0 -0 0 -0 -0 0 -0 -0 0 -0 -0 0 -0 
0 95.5 0 -0 0 -0 -0 0 -0 -0 0 -0 -16.739 30.776 29 -0 0 -0 -0 0 -0 -7.7159 -48.119 -13.514 -57.176 -69.179 -12.865 -0 0 -0 -0 0 -0 6.4154 -38.589 38.011 76.129 -55.591 -22.63 -0 0 -0 -4.0992 -24.93 -4.3441 -4.0992 -24.93 -4.3441 -0 0 -0 -0 0 -0 -0 0 -0 -0 0 -0 -0 0 -0 -0 0 -0 -0 0 -0 -0 0 -0 -0 0 -0 -0 0 -0 -0 0 -0 -0 0 -0 
0 95.5 0 -0 0 -0 -0 0 -0 -0 0 -0 -16.744 30.79 28.99 -0 0 -0 -0 0 -0 -7.679 -48.183 -13.484 -57.069 -69.147 -12.769 -0 0 -0 -0 0 -0 6.4506 -38.642 38.074 76.142 -55.608 -22.614 -0 0 -0 -4.1063 -24.93 -4.3042 -4.1063 -24.93 -4.3042 -0 0 -0 -0 0 -0 -0 0 -0 -0 0 -0 -0 0 -0 -0 0 -0 -0 0 -0 -0 0 -0 -0 0 -0 -0 0 -0 -0 0 -0 -0 0 -0 
0 95.5 0 -0 0 -0 -0 0 -0 -0 0 -0 -16.728 30.834 28.974 -0 0 -0 -0 0 -0 -7.6605 -48.255 -13.472 -56.986 -69.164 -12.69 -0 0 -0 -0 0 -0 6.4672 -38.704 38.141 76.126 -55.617 -22.573 -0 0 -0 -4.1332 -24.934 -4.2568 -4.1332 -24.934 -4.2568 -0 0 -0 -0 0 -0 -0 0 -0 -0 0 -0 -0 0 -0 -0 0 -0 -0 0 -0 -0 0 -0 -0 0 -0 -0 0 -0 -0 0 -0 -0 0 -0 
0 95.5 0 -0 0 -0 -0 0 -0 -0 0 -0 -16.696 30.807 28.957 -0 0 -0 -0 0 -0 -7.6324 -48.251 -13.465 -56.9 -69.181 -12.604 -0 0 -0 -0 0 -0 6.5109 -38.691 38.215 76.096 -55.64 -22.538 -0 0 -0 -4.1404 -24.909 -4.2317 -4.1404 -24.909 -4.2317 -0 0 -0 -0 0 -0 -0 0 -0 -0 0 -0 -0 0 -0 -0 0 -0 -0 0 -0 -0 0 -0 -0 0 -0 -0 0 -0 -0 0 -0 -0 0 -0 
